<svg width="167" height="44" viewBox="0 0 167 44" fill="none" xmlns="http://www.w3.org/2000/svg">
<path d="M56.404 30.0077V14.7962H61.2325V17.9837C61.485 16.8896 62.0005 16.0481 62.7789 15.459C63.5784 14.8488 64.4621 14.5438 65.4299 14.5438C65.9348 14.5438 66.3556 14.5858 66.6922 14.67V19.1514C66.1242 19.0883 65.6403 19.0567 65.2405 19.0567C62.5685 19.0567 61.2325 20.7504 61.2325 24.1377V30.0077H56.404ZM80.6815 28.2088C79.1667 29.7237 77.1259 30.4811 74.5591 30.4811C71.9923 30.4811 69.9409 29.7237 68.4051 28.2088C66.8692 26.694 66.1013 24.7584 66.1013 22.402C66.1013 20.0455 66.8692 18.1204 68.4051 16.6266C69.9409 15.1118 71.9923 14.3544 74.5591 14.3544C77.1259 14.3544 79.1667 15.1118 80.6815 16.6266C82.2174 18.1204 82.9853 20.0455 82.9853 22.402C82.9853 24.7584 82.2174 26.694 80.6815 28.2088ZM74.5591 26.3784C75.6742 26.3784 76.5578 26.0102 77.21 25.2738C77.8623 24.5375 78.1884 23.5802 78.1884 22.402C78.1884 21.2238 77.8623 20.2665 77.21 19.5301C76.5578 18.7937 75.6742 18.4255 74.5591 18.4255C73.423 18.4255 72.5288 18.7937 71.8766 19.5301C71.2454 20.2665 70.9298 21.2238 70.9298 22.402C70.9298 23.5802 71.2454 24.5375 71.8766 25.2738C72.5288 26.0102 73.423 26.3784 74.5591 26.3784ZM91.3347 30.4811C88.852 30.4811 86.8743 29.7447 85.4016 28.2719C83.9288 26.7781 83.1925 24.8215 83.1925 22.402C83.1925 19.9824 83.9288 18.0363 85.4016 16.5635C86.8743 15.0908 88.852 14.3544 91.3347 14.3544C93.5859 14.3544 95.4163 14.9119 96.826 16.027C98.2356 17.1421 99.0351 18.6569 99.2245 20.5715H94.3959C94.0382 19.1409 93.0284 18.4255 91.3662 18.4255C90.3143 18.4255 89.4937 18.7727 88.9046 19.467C88.3155 20.1613 88.021 21.1396 88.021 22.402C88.021 23.6643 88.3155 24.6427 88.9046 25.3369C89.4937 26.0312 90.3143 26.3784 91.3662 26.3784C93.0284 26.3784 94.0382 25.7051 94.3959 24.3586H99.2245C99.0351 26.2311 98.2356 27.7249 96.826 28.84C95.4163 29.9341 93.5859 30.4811 91.3347 30.4811ZM115.655 30.0077H109.753L104.925 23.4118V30.0077H100.096V7.91635H104.925V21.1396L109.879 14.7962H115.56L109.501 21.9917L115.655 30.0077ZM129.681 21.613C129.681 22.2442 129.639 22.949 129.554 23.7274H118.319C118.361 24.7163 118.698 25.4842 119.329 26.0312C119.96 26.5783 120.813 26.8518 121.886 26.8518C123.358 26.8518 124.305 26.3784 124.726 25.4316H129.46C129.228 26.9254 128.408 28.1457 126.998 29.0925C125.61 30.0182 123.905 30.4811 121.886 30.4811C119.298 30.4811 117.257 29.7657 115.763 28.3351C114.269 26.9044 113.522 24.9267 113.522 22.402C113.522 19.9193 114.269 17.9626 115.763 16.532C117.257 15.0803 119.245 14.3544 121.728 14.3544C124.084 14.3544 125.999 15.0277 127.472 16.3742C128.944 17.7207 129.681 19.467 129.681 21.613ZM118.319 20.7293H124.915C124.894 19.7194 124.61 18.941 124.063 18.394C123.516 17.8469 122.727 17.5734 121.696 17.5734C120.665 17.5734 119.845 17.868 119.235 18.4571C118.646 19.0251 118.34 19.7826 118.319 20.7293ZM138.472 26.2522C139.145 26.2522 139.703 26.2206 140.145 26.1575V30.0077C139.219 30.176 138.146 30.2602 136.926 30.2602C136.379 30.2602 135.895 30.2286 135.474 30.1655C135.053 30.1024 134.58 29.9656 134.054 29.7552C133.528 29.5238 133.097 29.2187 132.76 28.84C132.423 28.4613 132.129 27.9143 131.876 27.1989C131.645 26.4836 131.529 25.642 131.529 24.6742V18.6149H129.131V14.7962H131.529V10.2833H136.358V14.7962H139.798V18.6149H136.358V23.6643C136.358 24.6952 136.536 25.3895 136.894 25.7472C137.252 26.0838 137.778 26.2522 138.472 26.2522ZM159.84 14.7962H164.637V36.3195H159.808V28.6822H159.84V27.8617C159.419 28.6191 158.767 29.2398 157.883 29.7237C157.021 30.1865 156.063 30.418 155.011 30.418C152.802 30.418 151.056 29.6711 149.773 28.1773C148.489 26.6835 147.848 24.7584 147.848 22.402C147.848 20.0876 148.51 18.173 149.836 16.6582C151.161 15.1434 152.908 14.386 155.075 14.386C156.148 14.386 157.105 14.6174 157.946 15.0803C158.788 15.5431 159.419 16.1743 159.84 16.9738V14.7962ZM156.4 26.41C157.557 26.41 158.451 26.0312 159.083 25.2738C159.714 24.5164 160.029 23.5591 160.029 22.402C160.029 21.2658 159.714 20.3191 159.083 19.5616C158.451 18.8042 157.557 18.4255 156.4 18.4255C155.306 18.4255 154.422 18.7937 153.749 19.5301C153.097 20.2665 152.771 21.2238 152.771 22.402C152.771 23.5802 153.097 24.548 153.749 25.3054C154.422 26.0418 155.306 26.41 156.4 26.41Z" fill="#0D114F"/>
<path d="M146.158 29.4081C145.569 30.0182 144.833 30.3233 143.949 30.3233C143.066 30.3233 142.319 30.0182 141.709 29.4081C141.12 28.7979 140.825 28.0721 140.825 27.2305C140.825 26.3679 141.12 25.642 141.709 25.0529C142.319 24.4428 143.066 24.1377 143.949 24.1377C144.833 24.1377 145.569 24.4428 146.158 25.0529C146.769 25.642 147.074 26.3679 147.074 27.2305C147.074 28.0721 146.769 28.7979 146.158 29.4081Z" fill="url(#paint0_linear)"/>
<rect width="43.832" height="44" rx="7.88976" fill="url(#paint1_linear)"/>
<g filter="url(#filter0_di)">
<path d="M33.2583 32.5373H29.3495C29.1856 32.5373 29.0509 32.4094 29.0364 32.2462C29.0316 32.1916 29.0264 32.1388 29.0207 32.0875C28.7951 30.0446 26.6001 28.2843 24.5598 28.5326C23.0686 28.7141 21.8343 29.8438 20.3417 30.0125C19.3389 30.1259 18.4634 30.0742 17.4633 29.8777C16.5821 29.7047 15.7318 29.3875 14.9496 28.9463C13.1092 27.9083 12.1223 26.8391 11.2061 25.2268C10.68 24.301 10.3046 23.288 10.1669 22.2321C10.0511 21.3434 10.0587 20.5619 10.156 19.6994C10.3022 18.404 10.7157 17.1428 11.3904 16.0273C12.3457 14.4478 13.3772 13.4668 15.0594 12.5489C15.7723 12.1599 16.5397 11.8755 17.3329 11.7008C19.3339 11.2601 20.6301 11.3896 22.576 12.0019C23.6607 12.3432 24.839 13.075 25.8405 14.0299C28.0267 16.1143 28.1914 19.3848 28.2465 22.4049C28.2517 22.686 27.9945 22.8996 27.7179 22.8494C26.368 22.6046 25.3968 22.5852 24.0695 22.797C23.7137 22.8538 23.4207 22.486 23.5166 22.1387C23.5607 21.9789 23.5948 21.8223 23.6198 21.6679C23.9988 19.3358 22.4168 16.6769 20.0661 16.4402C18.7255 16.3053 17.3972 16.8531 16.4139 17.955C15.8263 18.5111 15.5023 19.3848 15.4017 20.3154C15.1429 22.7078 17.0925 25.0243 19.496 25.1398C19.9534 25.1618 20.395 25.0954 20.8462 24.9425C22.2757 24.4578 23.6682 23.7306 25.1732 23.845C29.6851 24.1879 32.8536 26.2325 33.6871 32.0462C33.7243 32.3058 33.5206 32.5373 33.2583 32.5373Z" fill="#FAFAFA"/>
</g>
<defs>
<filter id="filter0_di" x="8.44918" y="11.4401" width="26.8746" height="24.362" filterUnits="userSpaceOnUse" color-interpolation-filters="sRGB">
<feFlood flood-opacity="0" result="BackgroundImageFix"/>
<feColorMatrix in="SourceAlpha" type="matrix" values="0 0 0 0 0 0 0 0 0 0 0 0 0 0 0 0 0 0 127 0" result="hardAlpha"/>
<feOffset dy="1.63237"/>
<feGaussianBlur stdDeviation="0.816183"/>
<feColorMatrix type="matrix" values="0 0 0 0 0 0 0 0 0 0 0 0 0 0 0 0 0 0 0.07 0"/>
<feBlend mode="normal" in2="BackgroundImageFix" result="effect1_dropShadow"/>
<feBlend mode="normal" in="SourceGraphic" in2="effect1_dropShadow" result="shape"/>
<feColorMatrix in="SourceAlpha" type="matrix" values="0 0 0 0 0 0 0 0 0 0 0 0 0 0 0 0 0 0 127 0" result="hardAlpha"/>
<feOffset dy="1.63237"/>
<feGaussianBlur stdDeviation="1.02023"/>
<feComposite in2="hardAlpha" operator="arithmetic" k2="-1" k3="1"/>
<feColorMatrix type="matrix" values="0 0 0 0 0.219608 0 0 0 0 0.533333 0 0 0 0 1 0 0 0 0.13 0"/>
<feBlend mode="normal" in2="shape" result="effect2_innerShadow"/>
</filter>
<linearGradient id="paint0_linear" x1="189.169" y1="-59.2553" x2="177.482" y2="54.3321" gradientUnits="userSpaceOnUse">
<stop stop-color="#5498FF"/>
<stop offset="0.515625" stop-color="#428EFF"/>
<stop offset="1" stop-color="#297FFF"/>
</linearGradient>
<linearGradient id="paint1_linear" x1="52.463" y1="-66.5618" x2="19.3798" y2="48.6572" gradientUnits="userSpaceOnUse">
<stop stop-color="#5498FF"/>
<stop offset="0.515625" stop-color="#428EFF"/>
<stop offset="1" stop-color="#297FFF"/>
</linearGradient>
</defs>
</svg>
