<svg width="277" height="174" viewBox="0 0 277 174" fill="none" xmlns="http://www.w3.org/2000/svg">
<path d="M12.4734 167H9.95335L4.24735 158.378V167H1.72735V154.418H4.24735L9.95335 163.058V154.418H12.4734V167ZM24.2337 161.798C24.2337 162.158 24.2097 162.482 24.1617 162.77H16.8717C16.9317 163.49 17.1837 164.054 17.6277 164.462C18.0717 164.87 18.6177 165.074 19.2657 165.074C20.2017 165.074 20.8677 164.672 21.2637 163.868H23.9817C23.6937 164.828 23.1417 165.62 22.3257 166.244C21.5097 166.856 20.5077 167.162 19.3197 167.162C18.3597 167.162 17.4957 166.952 16.7277 166.532C15.9717 166.1 15.3777 165.494 14.9457 164.714C14.5257 163.934 14.3157 163.034 14.3157 162.014C14.3157 160.982 14.5257 160.076 14.9457 159.296C15.3657 158.516 15.9537 157.916 16.7097 157.496C17.4657 157.076 18.3357 156.866 19.3197 156.866C20.2677 156.866 21.1137 157.07 21.8577 157.478C22.6137 157.886 23.1957 158.468 23.6037 159.224C24.0237 159.968 24.2337 160.826 24.2337 161.798ZM21.6237 161.078C21.6117 160.43 21.3777 159.914 20.9217 159.53C20.4657 159.134 19.9077 158.936 19.2477 158.936C18.6237 158.936 18.0957 159.128 17.6637 159.512C17.2437 159.884 16.9857 160.406 16.8897 161.078H21.6237ZM31.5991 156.884C32.7871 156.884 33.7471 157.262 34.4791 158.018C35.2111 158.762 35.5771 159.806 35.5771 161.15V167H33.0571V161.492C33.0571 160.7 32.8591 160.094 32.4631 159.674C32.0671 159.242 31.5271 159.026 30.8431 159.026C30.1471 159.026 29.5951 159.242 29.1871 159.674C28.7911 160.094 28.5931 160.7 28.5931 161.492V167H26.0731V157.028H28.5931V158.27C28.9291 157.838 29.3551 157.502 29.8711 157.262C30.3991 157.01 30.9751 156.884 31.5991 156.884ZM43.5894 156.884C44.3454 156.884 45.0174 157.052 45.6054 157.388C46.1934 157.712 46.6494 158.198 46.9734 158.846C47.3094 159.482 47.4774 160.25 47.4774 161.15V167H44.9574V161.492C44.9574 160.7 44.7594 160.094 44.3634 159.674C43.9674 159.242 43.4274 159.026 42.7434 159.026C42.0474 159.026 41.4954 159.242 41.0874 159.674C40.6914 160.094 40.4934 160.7 40.4934 161.492V167H37.9734V153.68H40.4934V158.27C40.8174 157.838 41.2494 157.502 41.7894 157.262C42.3294 157.01 42.9294 156.884 43.5894 156.884ZM59.2878 157.028V167H56.7498V165.74C56.4258 166.172 55.9998 166.514 55.4718 166.766C54.9558 167.006 54.3918 167.126 53.7798 167.126C52.9998 167.126 52.3098 166.964 51.7098 166.64C51.1098 166.304 50.6358 165.818 50.2878 165.182C49.9518 164.534 49.7838 163.766 49.7838 162.878V157.028H52.3038V162.518C52.3038 163.31 52.5018 163.922 52.8978 164.354C53.2938 164.774 53.8338 164.984 54.5178 164.984C55.2138 164.984 55.7598 164.774 56.1558 164.354C56.5518 163.922 56.7498 163.31 56.7498 162.518V157.028H59.2878ZM74.1582 156.884C75.3822 156.884 76.3662 157.262 77.1102 158.018C77.8662 158.762 78.2442 159.806 78.2442 161.15V167H75.7242V161.492C75.7242 160.712 75.5262 160.118 75.1302 159.71C74.7342 159.29 74.1942 159.08 73.5102 159.08C72.8262 159.08 72.2802 159.29 71.8722 159.71C71.4762 160.118 71.2782 160.712 71.2782 161.492V167H68.7582V161.492C68.7582 160.712 68.5602 160.118 68.1642 159.71C67.7682 159.29 67.2282 159.08 66.5442 159.08C65.8482 159.08 65.2962 159.29 64.8882 159.71C64.4922 160.118 64.2942 160.712 64.2942 161.492V167H61.7742V157.028H64.2942V158.234C64.6182 157.814 65.0322 157.484 65.5362 157.244C66.0522 157.004 66.6162 156.884 67.2282 156.884C68.0082 156.884 68.7042 157.052 69.3162 157.388C69.9282 157.712 70.4022 158.18 70.7382 158.792C71.0622 158.216 71.5302 157.754 72.1422 157.406C72.7662 157.058 73.4382 156.884 74.1582 156.884ZM79.9876 161.978C79.9876 160.97 80.1856 160.076 80.5816 159.296C80.9896 158.516 81.5356 157.916 82.2196 157.496C82.9156 157.076 83.6896 156.866 84.5416 156.866C85.2856 156.866 85.9336 157.016 86.4856 157.316C87.0496 157.616 87.4996 157.994 87.8356 158.45V157.028H90.3736V167H87.8356V165.542C87.5116 166.01 87.0616 166.4 86.4856 166.712C85.9216 167.012 85.2676 167.162 84.5236 167.162C83.6836 167.162 82.9156 166.946 82.2196 166.514C81.5356 166.082 80.9896 165.476 80.5816 164.696C80.1856 163.904 79.9876 162.998 79.9876 161.978ZM87.8356 162.014C87.8356 161.402 87.7156 160.88 87.4756 160.448C87.2356 160.004 86.9116 159.668 86.5036 159.44C86.0956 159.2 85.6576 159.08 85.1896 159.08C84.7216 159.08 84.2896 159.194 83.8936 159.422C83.4976 159.65 83.1736 159.986 82.9216 160.43C82.6816 160.862 82.5616 161.378 82.5616 161.978C82.5616 162.578 82.6816 163.106 82.9216 163.562C83.1736 164.006 83.4976 164.348 83.8936 164.588C84.3016 164.828 84.7336 164.948 85.1896 164.948C85.6576 164.948 86.0956 164.834 86.5036 164.606C86.9116 164.366 87.2356 164.03 87.4756 163.598C87.7156 163.154 87.8356 162.626 87.8356 162.014ZM99.6438 158.468C99.9678 158.012 100.412 157.634 100.976 157.334C101.552 157.022 102.206 156.866 102.938 156.866C103.79 156.866 104.558 157.076 105.242 157.496C105.938 157.916 106.484 158.516 106.88 159.296C107.288 160.064 107.492 160.958 107.492 161.978C107.492 162.998 107.288 163.904 106.88 164.696C106.484 165.476 105.938 166.082 105.242 166.514C104.558 166.946 103.79 167.162 102.938 167.162C102.206 167.162 101.558 167.012 100.994 166.712C100.442 166.412 99.9918 166.034 99.6438 165.578V171.752H97.1238V157.028H99.6438V158.468ZM104.918 161.978C104.918 161.378 104.792 160.862 104.54 160.43C104.3 159.986 103.976 159.65 103.568 159.422C103.172 159.194 102.74 159.08 102.272 159.08C101.816 159.08 101.384 159.2 100.976 159.44C100.58 159.668 100.256 160.004 100.004 160.448C99.7638 160.892 99.6438 161.414 99.6438 162.014C99.6438 162.614 99.7638 163.136 100.004 163.58C100.256 164.024 100.58 164.366 100.976 164.606C101.384 164.834 101.816 164.948 102.272 164.948C102.74 164.948 103.172 164.828 103.568 164.588C103.976 164.348 104.3 164.006 104.54 163.562C104.792 163.118 104.918 162.59 104.918 161.978ZM118.593 161.798C118.593 162.158 118.569 162.482 118.521 162.77H111.231C111.291 163.49 111.543 164.054 111.987 164.462C112.431 164.87 112.977 165.074 113.625 165.074C114.561 165.074 115.227 164.672 115.623 163.868H118.341C118.053 164.828 117.501 165.62 116.685 166.244C115.869 166.856 114.867 167.162 113.679 167.162C112.719 167.162 111.855 166.952 111.087 166.532C110.331 166.1 109.737 165.494 109.305 164.714C108.885 163.934 108.675 163.034 108.675 162.014C108.675 160.982 108.885 160.076 109.305 159.296C109.725 158.516 110.313 157.916 111.069 157.496C111.825 157.076 112.695 156.866 113.679 156.866C114.627 156.866 115.473 157.07 116.217 157.478C116.973 157.886 117.555 158.468 117.963 159.224C118.383 159.968 118.593 160.826 118.593 161.798ZM115.983 161.078C115.971 160.43 115.737 159.914 115.281 159.53C114.825 159.134 114.267 158.936 113.607 158.936C112.983 158.936 112.455 159.128 112.023 159.512C111.603 159.884 111.345 160.406 111.249 161.078H115.983ZM122.952 158.576C123.276 158.048 123.696 157.634 124.212 157.334C124.74 157.034 125.34 156.884 126.012 156.884V159.53H125.346C124.554 159.53 123.954 159.716 123.546 160.088C123.15 160.46 122.952 161.108 122.952 162.032V167H120.432V157.028H122.952V158.576ZM131.616 156.866C132.36 156.866 133.014 157.016 133.578 157.316C134.142 157.604 134.586 157.982 134.91 158.45V157.028H137.448V167.072C137.448 167.996 137.262 168.818 136.89 169.538C136.518 170.27 135.96 170.846 135.216 171.266C134.472 171.698 133.572 171.914 132.516 171.914C131.1 171.914 129.936 171.584 129.024 170.924C128.124 170.264 127.614 169.364 127.494 168.224H129.996C130.128 168.68 130.41 169.04 130.842 169.304C131.286 169.58 131.82 169.718 132.444 169.718C133.176 169.718 133.77 169.496 134.226 169.052C134.682 168.62 134.91 167.96 134.91 167.072V165.524C134.586 165.992 134.136 166.382 133.56 166.694C132.996 167.006 132.348 167.162 131.616 167.162C130.776 167.162 130.008 166.946 129.312 166.514C128.616 166.082 128.064 165.476 127.656 164.696C127.26 163.904 127.062 162.998 127.062 161.978C127.062 160.97 127.26 160.076 127.656 159.296C128.064 158.516 128.61 157.916 129.294 157.496C129.99 157.076 130.764 156.866 131.616 156.866ZM134.91 162.014C134.91 161.402 134.79 160.88 134.55 160.448C134.31 160.004 133.986 159.668 133.578 159.44C133.17 159.2 132.732 159.08 132.264 159.08C131.796 159.08 131.364 159.194 130.968 159.422C130.572 159.65 130.248 159.986 129.996 160.43C129.756 160.862 129.636 161.378 129.636 161.978C129.636 162.578 129.756 163.106 129.996 163.562C130.248 164.006 130.572 164.348 130.968 164.588C131.376 164.828 131.808 164.948 132.264 164.948C132.732 164.948 133.17 164.834 133.578 164.606C133.986 164.366 134.31 164.03 134.55 163.598C134.79 163.154 134.91 162.626 134.91 162.014ZM149.323 157.028V167H146.785V165.74C146.461 166.172 146.035 166.514 145.507 166.766C144.991 167.006 144.427 167.126 143.815 167.126C143.035 167.126 142.345 166.964 141.745 166.64C141.145 166.304 140.671 165.818 140.323 165.182C139.987 164.534 139.819 163.766 139.819 162.878V157.028H142.339V162.518C142.339 163.31 142.537 163.922 142.933 164.354C143.329 164.774 143.869 164.984 144.553 164.984C145.249 164.984 145.795 164.774 146.191 164.354C146.587 163.922 146.785 163.31 146.785 162.518V157.028H149.323ZM157.335 156.884C158.523 156.884 159.483 157.262 160.215 158.018C160.947 158.762 161.313 159.806 161.313 161.15V167H158.793V161.492C158.793 160.7 158.595 160.094 158.199 159.674C157.803 159.242 157.263 159.026 156.579 159.026C155.883 159.026 155.331 159.242 154.923 159.674C154.527 160.094 154.329 160.7 154.329 161.492V167H151.809V157.028H154.329V158.27C154.665 157.838 155.091 157.502 155.607 157.262C156.135 157.01 156.711 156.884 157.335 156.884ZM166.644 159.098V163.922C166.644 164.258 166.722 164.504 166.878 164.66C167.046 164.804 167.322 164.876 167.706 164.876H168.876V167H167.292C165.168 167 164.106 165.968 164.106 163.904V159.098H162.918V157.028H164.106V154.562H166.644V157.028H168.876V159.098H166.644ZM170.04 161.978C170.04 160.97 170.238 160.076 170.634 159.296C171.042 158.516 171.588 157.916 172.272 157.496C172.968 157.076 173.742 156.866 174.594 156.866C175.338 156.866 175.986 157.016 176.538 157.316C177.102 157.616 177.552 157.994 177.888 158.45V157.028H180.426V167H177.888V165.542C177.564 166.01 177.114 166.4 176.538 166.712C175.974 167.012 175.32 167.162 174.576 167.162C173.736 167.162 172.968 166.946 172.272 166.514C171.588 166.082 171.042 165.476 170.634 164.696C170.238 163.904 170.04 162.998 170.04 161.978ZM177.888 162.014C177.888 161.402 177.768 160.88 177.528 160.448C177.288 160.004 176.964 159.668 176.556 159.44C176.148 159.2 175.71 159.08 175.242 159.08C174.774 159.08 174.342 159.194 173.946 159.422C173.55 159.65 173.226 159.986 172.974 160.43C172.734 160.862 172.614 161.378 172.614 161.978C172.614 162.578 172.734 163.106 172.974 163.562C173.226 164.006 173.55 164.348 173.946 164.588C174.354 164.828 174.786 164.948 175.242 164.948C175.71 164.948 176.148 164.834 176.556 164.606C176.964 164.366 177.288 164.03 177.528 163.598C177.768 163.154 177.888 162.626 177.888 162.014ZM189.697 158.468C190.021 158.012 190.465 157.634 191.029 157.334C191.605 157.022 192.259 156.866 192.991 156.866C193.843 156.866 194.611 157.076 195.295 157.496C195.991 157.916 196.537 158.516 196.933 159.296C197.341 160.064 197.545 160.958 197.545 161.978C197.545 162.998 197.341 163.904 196.933 164.696C196.537 165.476 195.991 166.082 195.295 166.514C194.611 166.946 193.843 167.162 192.991 167.162C192.259 167.162 191.611 167.012 191.047 166.712C190.495 166.412 190.045 166.034 189.697 165.578V171.752H187.177V157.028H189.697V158.468ZM194.971 161.978C194.971 161.378 194.845 160.862 194.593 160.43C194.353 159.986 194.029 159.65 193.621 159.422C193.225 159.194 192.793 159.08 192.325 159.08C191.869 159.08 191.437 159.2 191.029 159.44C190.633 159.668 190.309 160.004 190.057 160.448C189.817 160.892 189.697 161.414 189.697 162.014C189.697 162.614 189.817 163.136 190.057 163.58C190.309 164.024 190.633 164.366 191.029 164.606C191.437 164.834 191.869 164.948 192.325 164.948C192.793 164.948 193.225 164.828 193.621 164.588C194.029 164.348 194.353 164.006 194.593 163.562C194.845 163.118 194.971 162.59 194.971 161.978ZM203.804 167.162C202.844 167.162 201.98 166.952 201.212 166.532C200.444 166.1 199.838 165.494 199.394 164.714C198.962 163.934 198.746 163.034 198.746 162.014C198.746 160.994 198.968 160.094 199.412 159.314C199.868 158.534 200.486 157.934 201.266 157.514C202.046 157.082 202.916 156.866 203.876 156.866C204.836 156.866 205.706 157.082 206.486 157.514C207.266 157.934 207.878 158.534 208.322 159.314C208.778 160.094 209.006 160.994 209.006 162.014C209.006 163.034 208.772 163.934 208.304 164.714C207.848 165.494 207.224 166.1 206.432 166.532C205.652 166.952 204.776 167.162 203.804 167.162ZM203.804 164.966C204.26 164.966 204.686 164.858 205.082 164.642C205.49 164.414 205.814 164.078 206.054 163.634C206.294 163.19 206.414 162.65 206.414 162.014C206.414 161.066 206.162 160.34 205.658 159.836C205.166 159.32 204.56 159.062 203.84 159.062C203.12 159.062 202.514 159.32 202.022 159.836C201.542 160.34 201.302 161.066 201.302 162.014C201.302 162.962 201.536 163.694 202.004 164.21C202.484 164.714 203.084 164.966 203.804 164.966ZM213.374 158.576C213.698 158.048 214.118 157.634 214.634 157.334C215.162 157.034 215.762 156.884 216.434 156.884V159.53H215.768C214.976 159.53 214.376 159.716 213.968 160.088C213.572 160.46 213.374 161.108 213.374 162.032V167H210.854V157.028H213.374V158.576ZM221.773 161.978C221.773 160.97 221.971 160.076 222.367 159.296C222.775 158.516 223.321 157.916 224.005 157.496C224.701 157.076 225.475 156.866 226.327 156.866C227.071 156.866 227.719 157.016 228.271 157.316C228.835 157.616 229.285 157.994 229.621 158.45V157.028H232.159V167H229.621V165.542C229.297 166.01 228.847 166.4 228.271 166.712C227.707 167.012 227.053 167.162 226.309 167.162C225.469 167.162 224.701 166.946 224.005 166.514C223.321 166.082 222.775 165.476 222.367 164.696C221.971 163.904 221.773 162.998 221.773 161.978ZM229.621 162.014C229.621 161.402 229.501 160.88 229.261 160.448C229.021 160.004 228.697 159.668 228.289 159.44C227.881 159.2 227.443 159.08 226.975 159.08C226.507 159.08 226.075 159.194 225.679 159.422C225.283 159.65 224.959 159.986 224.707 160.43C224.467 160.862 224.347 161.378 224.347 161.978C224.347 162.578 224.467 163.106 224.707 163.562C224.959 164.006 225.283 164.348 225.679 164.588C226.087 164.828 226.519 164.948 226.975 164.948C227.443 164.948 227.881 164.834 228.289 164.606C228.697 164.366 229.021 164.03 229.261 163.598C229.501 163.154 229.621 162.626 229.621 162.014ZM233.972 161.996C233.972 161 234.176 160.118 234.584 159.35C235.004 158.57 235.568 157.964 236.276 157.532C236.984 157.1 237.764 156.884 238.616 156.884C239.324 156.884 239.948 157.022 240.488 157.298C241.04 157.562 241.484 157.904 241.82 158.324V157.028H244.358V171.752H241.82V165.632C241.484 166.064 241.034 166.424 240.47 166.712C239.906 167 239.27 167.144 238.562 167.144C237.722 167.144 236.948 166.928 236.24 166.496C235.544 166.052 234.992 165.44 234.584 164.66C234.176 163.88 233.972 162.992 233.972 161.996ZM241.82 162.014C241.82 161.402 241.694 160.874 241.442 160.43C241.19 159.986 240.86 159.65 240.452 159.422C240.056 159.194 239.63 159.08 239.174 159.08C238.73 159.08 238.304 159.194 237.896 159.422C237.5 159.65 237.176 159.986 236.924 160.43C236.672 160.862 236.546 161.384 236.546 161.996C236.546 162.608 236.672 163.142 236.924 163.598C237.176 164.042 237.5 164.378 237.896 164.606C238.304 164.834 238.73 164.948 239.174 164.948C239.63 164.948 240.056 164.834 240.452 164.606C240.86 164.378 241.19 164.042 241.442 163.598C241.694 163.154 241.82 162.626 241.82 162.014ZM256.233 157.028V167H253.695V165.74C253.371 166.172 252.945 166.514 252.417 166.766C251.901 167.006 251.337 167.126 250.725 167.126C249.945 167.126 249.255 166.964 248.655 166.64C248.055 166.304 247.581 165.818 247.233 165.182C246.897 164.534 246.729 163.766 246.729 162.878V157.028H249.249V162.518C249.249 163.31 249.447 163.922 249.843 164.354C250.239 164.774 250.779 164.984 251.463 164.984C252.159 164.984 252.705 164.774 253.101 164.354C253.497 163.922 253.695 163.31 253.695 162.518V157.028H256.233ZM259.998 155.84C259.554 155.84 259.182 155.702 258.882 155.426C258.594 155.138 258.45 154.784 258.45 154.364C258.45 153.944 258.594 153.596 258.882 153.32C259.182 153.032 259.554 152.888 259.998 152.888C260.442 152.888 260.808 153.032 261.096 153.32C261.396 153.596 261.546 153.944 261.546 154.364C261.546 154.784 261.396 155.138 261.096 155.426C260.808 155.702 260.442 155.84 259.998 155.84ZM261.24 157.028V167H258.72V157.028H261.24ZM264.845 167.126C264.389 167.126 264.011 166.988 263.711 166.712C263.423 166.424 263.279 166.07 263.279 165.65C263.279 165.23 263.423 164.882 263.711 164.606C264.011 164.318 264.389 164.174 264.845 164.174C265.289 164.174 265.655 164.318 265.943 164.606C266.231 164.882 266.375 165.23 266.375 165.65C266.375 166.07 266.231 166.424 265.943 166.712C265.655 166.988 265.289 167.126 264.845 167.126ZM269.521 167.126C269.065 167.126 268.687 166.988 268.387 166.712C268.099 166.424 267.955 166.07 267.955 165.65C267.955 165.23 268.099 164.882 268.387 164.606C268.687 164.318 269.065 164.174 269.521 164.174C269.965 164.174 270.331 164.318 270.619 164.606C270.907 164.882 271.051 165.23 271.051 165.65C271.051 166.07 270.907 166.424 270.619 166.712C270.331 166.988 269.965 167.126 269.521 167.126ZM274.197 167.126C273.741 167.126 273.363 166.988 273.063 166.712C272.775 166.424 272.631 166.07 272.631 165.65C272.631 165.23 272.775 164.882 273.063 164.606C273.363 164.318 273.741 164.174 274.197 164.174C274.641 164.174 275.007 164.318 275.295 164.606C275.583 164.882 275.727 165.23 275.727 165.65C275.727 166.07 275.583 166.424 275.295 166.712C275.007 166.988 274.641 167.126 274.197 167.126Z" fill="#0D114F"/>
<circle opacity="0.1" cx="145.5" cy="67.5" r="67.5" fill="url(#paint0_linear_37:1689)"/>
<path fill-rule="evenodd" clip-rule="evenodd" d="M140.423 66.5012C128.644 66.5012 119.094 74.8799 119.094 85.2155V85.2633C119.094 95.5989 128.644 103.978 140.423 103.978H171.877C173.052 103.978 174.204 103.894 175.328 103.734L181.422 108.898C181.587 109.039 181.809 109.117 182.039 109.117C182.53 109.117 182.928 108.768 182.928 108.338L182.928 101.273C189.089 97.9914 193.206 92.0491 193.206 85.2633V85.2155C193.206 74.8799 183.656 66.5012 171.877 66.5012H140.423Z" fill="#1D4885"/>
<path d="M145.596 21.6649H100.685C83.8573 21.6649 70.2156 33.6344 70.2156 48.3996C70.2156 63.1648 83.8573 75.1343 100.685 75.1343H145.596C162.424 75.1343 176.066 63.1648 176.066 48.3996C176.066 33.6344 162.424 21.6649 145.596 21.6649Z" fill="url(#paint1_linear_37:1689)"/>
<path fill-rule="evenodd" clip-rule="evenodd" d="M84.895 67.3577V81.3535C84.895 81.9688 85.4634 82.4675 86.1646 82.4675C86.4934 82.4675 86.8095 82.3555 87.0461 82.1552L98.7678 72.2316L84.895 67.3577Z" fill="url(#paint2_linear_37:1689)"/>
<path d="M102.748 51.7415C105.465 51.7415 107.668 49.8089 107.668 47.4249C107.668 45.041 105.465 43.1084 102.748 43.1084C100.031 43.1084 97.8289 45.041 97.8289 47.4249C97.8289 49.8089 100.031 51.7415 102.748 51.7415Z" fill="white"/>
<path d="M122.903 51.7415C125.62 51.7415 127.823 49.8089 127.823 47.4249C127.823 45.041 125.62 43.1084 122.903 43.1084C120.186 43.1084 117.983 45.041 117.983 47.4249C117.983 49.8089 120.186 51.7415 122.903 51.7415Z" fill="white"/>
<path d="M143.533 51.7415C146.25 51.7415 148.453 49.8089 148.453 47.4249C148.453 45.041 146.25 43.1084 143.533 43.1084C140.816 43.1084 138.614 45.041 138.614 47.4249C138.614 49.8089 140.816 51.7415 143.533 51.7415Z" fill="white"/>
<defs>
<linearGradient id="paint0_linear_37:1689" x1="239.583" y1="-204.224" x2="138.406" y2="149.495" gradientUnits="userSpaceOnUse">
<stop stop-color="#5498FF"/>
<stop offset="0.515625" stop-color="#428EFF"/>
<stop offset="1" stop-color="#297FFF"/>
</linearGradient>
<linearGradient id="paint1_linear_37:1689" x1="196.909" y1="-59.2221" x2="175.458" y2="89.2381" gradientUnits="userSpaceOnUse">
<stop stop-color="#5498FF"/>
<stop offset="0.515625" stop-color="#428EFF"/>
<stop offset="1" stop-color="#297FFF"/>
</linearGradient>
<linearGradient id="paint2_linear_37:1689" x1="101.5" y1="44.5" x2="89.337" y2="83.5398" gradientUnits="userSpaceOnUse">
<stop stop-color="#5498FF"/>
<stop offset="0.515625" stop-color="#428EFF"/>
<stop offset="1" stop-color="#297FFF"/>
</linearGradient>
</defs>
</svg>
